<svg width="61" height="51" viewBox="0 0 61 51" fill="none" xmlns="http://www.w3.org/2000/svg">
<path d="M1.39381 0.747236C4.50637 -0.150472 9.21999 2.2775 11.57 4.83718L14.0245 8.00342C15.7965 10.0848 17.4708 11.1246 19.8467 11.544C20.3053 11.6254 20.7367 11.7346 21.2035 11.7017C23.6648 11.5232 26.0026 10.2789 27.8519 8.20099C28.78 7.1577 29.3512 5.94978 30.5656 4.728C32.8966 2.38148 36.1177 0.670983 39.1136 0.625924C42.6875 0.573933 45.8299 1.58256 48.7091 4.41779C50.7904 6.46969 51.1948 8.19752 53.7673 10.0085C54.7239 10.6809 56.2096 11.3499 57.2951 11.5145C58.2991 11.667 59.4606 11.5111 60.215 12.492C61.2054 13.7761 60.9843 16.0741 59.7319 16.9562C59.1688 17.3548 58.3385 17.2716 57.7021 17.263C54.7402 17.2179 51.3874 15.2579 49.1541 12.8542L46.8421 9.86122C44.9859 7.70361 42.218 6.05203 39.6563 6.25999C37.0187 6.47489 35.0173 7.42979 33.0079 9.68792C31.9685 10.856 31.7379 11.726 30.0229 13.4105C27.7746 15.6166 24.6064 17.2197 21.7462 17.263C18.0692 17.3167 15.0611 16.2994 12.1127 13.3775C10.0259 11.3083 9.63789 9.74858 7.22816 7.97916C6.2024 7.22529 4.87407 6.61353 3.70041 6.3969C2.94059 6.25653 1.61769 6.31025 0.992189 5.79901C-0.429765 4.63788 -0.346999 1.75759 1.39381 0.747236ZM1.52949 17.3618C4.6909 16.6356 9.01239 18.7932 11.4343 21.3287L14.8264 25.5001C16.4424 27.1776 18.9769 28.3405 21.0678 28.3405C23.3079 28.3405 25.7258 27.1274 27.4449 25.3285L30.7013 21.3287C32.8396 19.0913 36.1896 17.3046 38.9779 17.263H40.4704C43.2478 17.2682 46.4174 18.8002 48.6114 20.9439C50.7036 22.9872 51.4173 24.9524 53.903 26.7184C54.751 27.3215 56.3317 28.006 57.2951 28.1516C58.2448 28.2954 59.4117 28.1845 60.1308 29.0701C61.238 30.4357 61.0182 32.7909 59.6017 33.673C59.1105 33.978 58.1309 33.907 57.5664 33.9C54.9762 33.8602 51.4214 31.966 49.4309 29.895L46.1691 25.8103C44.5124 24.0478 41.9602 22.8139 39.792 22.8139C37.3728 22.8139 34.8165 24.1812 33.0201 26.2071L29.7515 30.2191C27.5724 32.3473 24.2278 33.8585 21.4748 33.9C18.1655 33.9486 14.9051 32.8152 12.2484 30.2191C10.2349 28.2538 9.44658 26.2799 7.09248 24.5434C6.07893 23.7965 4.72346 23.2419 3.56473 23.0305C2.78863 22.8901 1.60955 22.9057 0.986762 22.3494C-0.55188 20.9769 -0.195034 18.1832 1.52949 17.3618ZM1.52949 33.9971C4.95005 33.2328 9.41537 35.7111 11.9526 38.5394C13.2321 39.9639 14.8603 42.4837 13.0557 44.4039C12.8156 44.6587 12.5537 44.8337 12.2484 44.9238C10.3502 45.4801 9.90654 43.8442 8.66369 42.5808C7.55109 41.4508 6.03144 40.3972 4.65019 39.9483C3.60137 39.6069 1.46708 39.619 0.741176 38.8288C-0.258805 37.7439 -0.428408 34.8705 1.52949 33.9971ZM38.2995 33.9728C42.119 33.3784 46.028 34.9953 49.0184 38.0004C51.1541 40.1459 51.6887 41.9777 54.4457 43.6691C55.1526 44.1024 56.3819 44.5807 57.1594 44.7419C58.5081 45.0226 60.371 44.6795 60.7957 46.8977C60.8255 47.2097 60.8296 47.7833 60.7957 48.1109C60.7441 50.7971 58.7984 50.5596 57.2951 50.5371C54.5353 50.4955 50.9343 48.2599 48.8827 45.981L46.7118 43.1146C45.1745 41.3382 43.2438 39.9483 41.1488 39.6485L39.6563 39.4769C37.3294 39.4769 34.8898 40.9344 33.1436 42.8147C31.8125 44.2497 31.4204 45.3865 29.6158 47.0849C27.6281 48.9531 24.5046 50.499 22.0176 50.5371C20.4626 50.5596 17.943 50.7468 16.7409 49.2876C15.8603 48.2201 16.0421 46 17.0421 45.1179C17.5713 44.6483 18.1425 44.6292 18.7612 44.6465L21.0678 44.9325C22.3486 44.9325 23.9795 44.4039 25.1383 43.7246C27.989 42.0557 28.5778 40.0887 30.8369 37.8288C33.2222 35.4424 35.362 34.5395 38.2995 33.9728Z" fill="url(#paint0_linear_350_9088)"/>
<defs>
<linearGradient id="paint0_linear_350_9088" x1="35.7909" y1="0.556762" x2="19.0016" y2="48.438" gradientUnits="userSpaceOnUse">
<stop stop-color="#16BAC5"/>
<stop offset="0.3" stop-color="#42BDE4"/>
<stop offset="0.5" stop-color="#5FBFF9"/>
<stop offset="1" stop-color="#5863F8"/>
</linearGradient>
</defs>
</svg>
